<svg width="56" height="56" viewBox="0 0 56 56" fill="none" xmlns="http://www.w3.org/2000/svg">
<g clip-path="url(#clip0_32_496)">
<path d="M30.0205 22.4932C30.8382 22.4935 31.501 23.1569 31.501 23.9746V26.3398C32.4849 26.6164 33.4321 27.0103 34.3232 27.5107L35.998 25.8369L36.1104 25.7354C36.6921 25.2607 37.5505 25.2946 38.0928 25.8369L40.9492 28.6934C41.5268 29.2716 41.527 30.2089 40.9492 30.7871L39.2744 32.4609C39.775 33.3522 40.1677 34.3001 40.4443 35.2842H42.8105C43.6284 35.2843 44.292 35.9477 44.292 36.7656V40.8047C44.2916 41.6223 43.6282 42.2851 42.8105 42.2852H40.4443C40.1678 43.2691 39.7749 44.2163 39.2744 45.1074L40.9492 46.7822C41.5271 47.3606 41.5273 48.2987 40.9492 48.877L38.0928 51.7334C37.5145 52.3115 36.5764 52.3113 35.998 51.7334L34.3232 50.0586C33.4321 50.5591 32.4849 50.9519 31.501 51.2285V53.5947C31.5008 54.4124 30.8381 55.0758 30.0205 55.0762H25.9814C25.1636 55.0762 24.5001 54.4126 24.5 53.5947V51.2275C23.516 50.9509 22.568 50.5592 21.6768 50.0586L20.0029 51.7334C19.4247 52.3111 18.4875 52.311 17.9092 51.7334L15.0527 48.877C14.4744 48.2986 14.4744 47.3606 15.0527 46.7822L16.7266 45.1074C16.2262 44.2164 15.8332 43.269 15.5566 42.2852H13.1904C12.3727 42.2852 11.7093 41.6223 11.709 40.8047V36.7656C11.709 35.9477 12.3725 35.2842 13.1904 35.2842H15.5566C15.8333 34.3 16.2259 33.3522 16.7266 32.4609L15.0527 30.7871C14.7751 30.5094 14.6192 30.1329 14.6191 29.7402C14.6191 29.3475 14.7751 28.9711 15.0527 28.6934L17.9092 25.8369L18.0176 25.7383C18.2811 25.5224 18.6124 25.4033 18.9561 25.4033C19.3487 25.4034 19.7252 25.5593 20.0029 25.8369L21.6768 27.5107C22.5681 27.0101 23.5158 26.6175 24.5 26.3408V23.9746C24.5 23.1567 25.1635 22.4932 25.9814 22.4932H30.0205ZM28.001 29.8984C25.6442 29.8984 23.3833 30.8345 21.7168 32.501C20.0503 34.1675 19.1143 36.4284 19.1143 38.7852C19.1143 41.1417 20.0505 43.402 21.7168 45.0684C23.3833 46.7348 25.6442 47.6709 28.001 47.6709C30.3576 47.6708 32.6178 46.7348 34.2842 45.0684C35.9506 43.402 36.8866 41.1418 36.8867 38.7852C36.8867 36.4284 35.9507 34.1675 34.2842 32.501C32.6178 30.8347 30.3575 29.8985 28.001 29.8984Z" fill="white"/>
</g>
<path d="M27.998 37.3638H10.123C5.9369 37.3638 2.54492 33.9892 2.54492 29.8312C2.54492 26.8482 4.28792 24.2721 6.81594 23.0518C6.42492 22.0244 6.20974 20.9126 6.20974 19.7496C6.20974 14.6063 10.4048 10.4363 15.579 10.4363C16.2429 10.4363 16.8917 10.5026 17.5129 10.6351C18.9196 6.20897 23.0814 3.00013 27.998 3.00013C32.9146 3.00013 37.0764 6.20897 38.4829 10.6351C39.1074 10.5026 39.7531 10.4363 40.4168 10.4363C45.5911 10.4363 49.7893 14.6063 49.7893 19.7496C49.7893 20.9126 49.5741 22.0244 49.1831 23.0518C51.711 24.2721 53.454 26.8482 53.454 29.8312C53.454 33.9892 50.059 37.3638 45.8761 37.3638H27.998Z" stroke="white" stroke-width="3.81818" stroke-miterlimit="10" stroke-linecap="round" stroke-linejoin="round"/>
<path d="M40.7266 18.2751V28.2681" stroke="white" stroke-width="2.39538" stroke-miterlimit="10" stroke-linecap="round" stroke-linejoin="round"/>
<path d="M29.1992 18.2774V28.4541" stroke="white" stroke-width="2.39538" stroke-miterlimit="10" stroke-linecap="round" stroke-linejoin="round"/>
<path d="M35.2914 21.1444C35.2914 22.7325 33.8708 24.016 32.1953 24.016C31.3636 24.016 29.2204 24.0303 29.2204 24.0303C29.2204 24.0303 29.2083 21.9456 29.2083 21.1444C29.2083 20.4869 29.1992 18.2729 29.1992 18.2729H32.1953C33.8708 18.2729 35.2914 19.5595 35.2914 21.1444Z" stroke="white" stroke-width="2.39538" stroke-miterlimit="10" stroke-linecap="round" stroke-linejoin="round"/>
<path d="M15.2725 28.4541L19.3127 18.4209C19.3946 18.2285 19.68 18.2285 19.762 18.4209L23.7658 28.4541" stroke="white" stroke-width="2.39538" stroke-miterlimit="10" stroke-linecap="round" stroke-linejoin="round"/>
<path d="M16.5303 25.9541H22.5255" stroke="white" stroke-width="2.44806" stroke-miterlimit="10" stroke-linecap="round" stroke-linejoin="round"/>
<defs>
<clipPath id="clip0_32_496">
<rect width="32.29" height="18.1631" fill="white" transform="translate(11.8555 37.374)"/>
</clipPath>
</defs>
</svg>
