<svg width="20" height="20" viewBox="0 0 20 20" fill="none" xmlns="http://www.w3.org/2000/svg">
<path d="M2.94424 1.05752C2.42354 0.536818 1.57932 0.536817 1.05862 1.05752C0.537918 1.57822 0.537918 2.42244 1.05862 2.94313L8.11575 10.0003L1.05849 17.0575C0.537794 17.5782 0.537794 18.4224 1.05849 18.9431C1.57919 19.4638 2.42341 19.4638 2.94411 18.9431L10.0014 11.8859L17.0586 18.9431C17.5793 19.4638 18.4235 19.4638 18.9442 18.9431C19.4649 18.4224 19.4649 17.5782 18.9442 17.0575L11.887 10.0003L18.9441 2.94314C19.4648 2.42244 19.4648 1.57822 18.9441 1.05752C18.4234 0.536819 17.5792 0.53682 17.0585 1.05752L10.0014 8.11465L2.94424 1.05752Z" fill="#00AEEF"/>
</svg>
