<svg width="61" height="44" viewBox="0 0 61 44" fill="none" xmlns="http://www.w3.org/2000/svg">
<g clip-path="url(#clip0_4012_17700)">
<path d="M4.80801 40.6672C4.80801 40.5314 4.78902 40.4086 4.75105 40.2986C4.71308 40.1889 4.63799 40.0848 4.52616 39.987C4.41433 39.8891 4.25741 39.7922 4.05568 39.6962C3.85395 39.6004 3.58919 39.4984 3.26167 39.3905C2.87806 39.2626 2.50849 39.1189 2.15287 38.959C1.79716 38.7993 1.48152 38.6096 1.20593 38.3897C0.930156 38.1699 0.709441 37.9132 0.543596 37.6195C0.377751 37.3257 0.294875 36.9832 0.294875 36.5916C0.294875 36.2161 0.3787 35.8775 0.546633 35.5757C0.714377 35.274 0.948193 35.0174 1.2478 34.8055C1.5474 34.5936 1.90206 34.43 2.3116 34.314C2.72113 34.1981 3.1676 34.1401 3.65118 34.1401C4.12669 34.1401 4.56413 34.204 4.96379 34.3319C5.36346 34.4598 5.70692 34.6417 5.99465 34.8773C6.2823 35.1131 6.507 35.3978 6.66886 35.7314C6.83072 36.0652 6.91169 36.4378 6.91169 36.8492H4.81399C4.81399 36.6854 4.78893 36.5346 4.73909 36.3967C4.68906 36.2588 4.61312 36.1409 4.51125 36.043C4.40939 35.9452 4.28361 35.8683 4.13371 35.8124C3.98382 35.7564 3.80705 35.7284 3.60324 35.7284C3.40341 35.7284 3.22769 35.7514 3.0758 35.7975C2.92391 35.8435 2.79708 35.9074 2.69522 35.9892C2.59336 36.071 2.51646 36.165 2.46453 36.2709C2.41261 36.3767 2.38669 36.4897 2.38669 36.6095C2.38669 36.7414 2.42362 36.8602 2.49747 36.9661C2.57133 37.0719 2.67727 37.172 2.81521 37.2658C2.95305 37.3597 3.12079 37.4475 3.31863 37.5295C3.51637 37.6114 3.73918 37.6924 3.98685 37.7723C4.45021 37.9202 4.86383 38.084 5.22751 38.2638C5.5911 38.4436 5.89763 38.6495 6.14749 38.8811C6.39735 39.1127 6.58703 39.3746 6.71689 39.6662C6.84666 39.9579 6.91169 40.2875 6.91169 40.6551C6.91169 41.0467 6.8347 41.3954 6.68091 41.701C6.52712 42.0066 6.30935 42.2634 6.02769 42.4711C5.74603 42.6789 5.40637 42.8368 5.00879 42.9446C4.61122 43.0525 4.16865 43.1065 3.68127 43.1065C3.38167 43.1065 3.08396 43.0814 2.78834 43.0316C2.49254 42.9818 2.20983 42.9048 1.94023 42.8009C1.67062 42.6971 1.41886 42.5662 1.18505 42.4083C0.951231 42.2504 0.749407 42.0618 0.579669 41.8419C0.409837 41.6221 0.276079 41.3725 0.17811 41.0927C0.0801406 40.813 0.03125 40.5013 0.03125 40.1577H2.14091C2.14091 40.4134 2.1749 40.6281 2.24277 40.802C2.31065 40.976 2.41052 41.1168 2.54238 41.2247C2.67424 41.3327 2.83505 41.4095 3.02491 41.4555C3.21459 41.5014 3.4334 41.5243 3.68117 41.5243C3.88101 41.5243 4.05188 41.5014 4.19361 41.4555C4.33535 41.4095 4.4523 41.3476 4.54429 41.2696C4.63609 41.1917 4.70302 41.1008 4.74498 40.9969C4.78694 40.8931 4.80801 40.7833 4.80801 40.6672Z" fill="white"/>
<path d="M12.4916 40.6672C12.4916 40.5314 12.4726 40.4086 12.4346 40.2986C12.3967 40.1889 12.3216 40.0848 12.2098 39.987C12.0979 39.8891 11.941 39.7922 11.7393 39.6962C11.5375 39.6004 11.2728 39.4984 10.9453 39.3905C10.5616 39.2626 10.1921 39.1189 9.83647 38.959C9.48076 38.7993 9.16511 38.6096 8.88953 38.3897C8.61375 38.1699 8.39303 37.9132 8.22719 37.6195C8.06134 37.3257 7.97847 36.9832 7.97847 36.5916C7.97847 36.2161 8.06229 35.8775 8.23022 35.5757C8.39797 35.274 8.63179 35.0174 8.93139 34.8055C9.23099 34.5936 9.58566 34.43 9.99519 34.314C10.4047 34.1981 10.8512 34.1401 11.3348 34.1401C11.8103 34.1401 12.2477 34.204 12.6474 34.3319C13.047 34.4598 13.3905 34.6417 13.6782 34.8773C13.9659 35.1131 14.1906 35.3978 14.3525 35.7314C14.5143 36.0652 14.5953 36.4378 14.5953 36.8492H12.4976C12.4976 36.6854 12.4725 36.5346 12.4227 36.3967C12.3727 36.2588 12.2967 36.1409 12.1948 36.043C12.093 35.9452 11.9672 35.8683 11.8173 35.8124C11.6674 35.7564 11.4906 35.7284 11.2868 35.7284C11.087 35.7284 10.9113 35.7514 10.7594 35.7975C10.6075 35.8435 10.4807 35.9074 10.3788 35.9892C10.2769 36.071 10.2001 36.165 10.1481 36.2709C10.0962 36.3767 10.0703 36.4897 10.0703 36.6095C10.0703 36.7414 10.1072 36.8602 10.1811 36.9661C10.2549 37.0719 10.3609 37.172 10.4988 37.2658C10.6366 37.3597 10.8044 37.4475 11.0022 37.5295C11.2 37.6114 11.4228 37.6924 11.6704 37.7723C12.1338 37.9202 12.5474 38.084 12.9111 38.2638C13.2747 38.4436 13.5812 38.6495 13.8311 38.8811C14.0809 39.1127 14.2706 39.3746 14.4005 39.6662C14.5303 39.9579 14.5953 40.2875 14.5953 40.6551C14.5953 41.0467 14.5183 41.3954 14.3645 41.701C14.2107 42.0066 13.9929 42.2634 13.7113 42.4711C13.4296 42.6789 13.09 42.8368 12.6924 42.9446C12.2948 43.0525 11.8522 43.1065 11.3649 43.1065C11.0653 43.1065 10.7676 43.0814 10.4719 43.0316C10.1761 42.9818 9.89342 42.9048 9.62382 42.8009C9.35421 42.6971 9.10245 42.5662 8.86864 42.4083C8.63482 42.2504 8.433 42.0618 8.26326 41.8419C8.09343 41.6221 7.95967 41.3725 7.8617 41.0927C7.76373 40.813 7.71484 40.5013 7.71484 40.1577H9.82451C9.82451 40.4134 9.85849 40.6281 9.92637 40.802C9.99424 40.976 10.0941 41.1168 10.226 41.2247C10.3578 41.3327 10.5186 41.4095 10.7085 41.4555C10.8982 41.5014 11.117 41.5243 11.3648 41.5243C11.5646 41.5243 11.7355 41.5014 11.8772 41.4555C12.0189 41.4095 12.1359 41.3476 12.2279 41.2696C12.3197 41.1917 12.3866 41.1008 12.4286 40.9969C12.4705 40.8931 12.4916 40.7833 12.4916 40.6672Z" fill="white"/>
<path d="M15.6758 42.9868V34.2603H18.4866C19.0778 34.2603 19.6213 34.3621 20.1168 34.5659C20.6122 34.7698 21.0388 35.0564 21.3964 35.4261C21.7541 35.7958 22.0328 36.2372 22.2326 36.7506C22.4322 37.2641 22.5322 37.8285 22.5322 38.4438V38.8095C22.5322 39.4289 22.4322 39.9942 22.2326 40.5056C22.0328 41.0171 21.7541 41.4567 21.3964 41.8243C21.0388 42.1919 20.6143 42.4775 20.1228 42.6813C19.6313 42.8852 19.0939 42.9869 18.5106 42.9869H15.6758V42.9868ZM17.7795 35.8846V41.3685H18.5107C19.114 41.3685 19.5776 41.1539 19.9012 40.7243C20.2248 40.2948 20.3867 39.6565 20.3867 38.8094V38.4317C20.3867 37.5887 20.2248 36.9535 19.9012 36.526C19.5776 36.0985 19.1059 35.8846 18.4867 35.8846H17.7795Z" fill="white"/>
<path d="M33.7466 42.9868H32.2304L28.3406 36.7955V42.9868H26.8242V34.2603H28.3406L32.2422 40.4756V34.2603H33.7466V42.9868Z" fill="white"/>
<path d="M35.125 39.6843C35.125 39.2129 35.1938 38.7764 35.3318 38.3748C35.4696 37.9733 35.6672 37.6247 35.9251 37.329C36.1829 37.0333 36.4975 36.8015 36.8691 36.6336C37.2406 36.4659 37.6622 36.3818 38.1338 36.3818C38.6092 36.3818 39.0348 36.4658 39.4103 36.6336C39.7859 36.8015 40.1025 37.0332 40.3604 37.329C40.618 37.6248 40.8149 37.9734 40.9508 38.3748C41.0866 38.7763 41.1546 39.2129 41.1546 39.6843V39.8103C41.1546 40.2818 41.0866 40.7194 40.9508 41.1229C40.8149 41.5266 40.618 41.875 40.3604 42.1688C40.1025 42.4625 39.7869 42.6921 39.4134 42.8579C39.0398 43.0237 38.6171 43.1066 38.1458 43.1066C37.6703 43.1066 37.2458 43.0237 36.8722 42.8579C36.4986 42.692 36.1829 42.4624 35.9251 42.1688C35.6672 41.8751 35.4696 41.5265 35.3318 41.1229C35.1938 40.7194 35.125 40.2819 35.125 39.8103V39.6843ZM36.5814 39.8103C36.5814 40.1019 36.6114 40.3777 36.6713 40.6374C36.7312 40.8972 36.8251 41.1239 36.953 41.3177C37.0809 41.5116 37.2436 41.6644 37.4414 41.7762C37.6392 41.8881 37.8739 41.944 38.1457 41.944C38.4133 41.944 38.646 41.8881 38.8439 41.7762C39.0417 41.6644 39.2035 41.5116 39.3294 41.3177C39.4552 41.1239 39.5491 40.8972 39.6111 40.6374C39.673 40.3777 39.7039 40.1019 39.7039 39.8103V39.6843C39.7039 39.3967 39.6729 39.124 39.6111 38.8663C39.5491 38.6085 39.4543 38.3827 39.3265 38.189C39.1987 37.9954 39.0357 37.8405 38.8381 37.7246C38.6402 37.6088 38.4055 37.5508 38.1338 37.5508C37.862 37.5508 37.6291 37.6088 37.4354 37.7246C37.2418 37.8405 37.081 37.9954 36.9531 38.189C36.8252 38.3827 36.7313 38.6085 36.6714 38.8663C36.6115 39.124 36.5815 39.3968 36.5815 39.6843V39.8103H36.5814Z" fill="white"/>
<path d="M42.1134 39.6963C42.1134 39.2049 42.1722 38.7555 42.2902 38.3478C42.408 37.9402 42.5779 37.5906 42.7996 37.299C43.0214 37.0075 43.2901 36.7816 43.6058 36.6218C43.9214 36.4619 44.277 36.3819 44.6727 36.3819C45.0323 36.3819 45.3488 36.4439 45.6226 36.5678C45.8963 36.6916 46.135 36.8695 46.3389 37.1012V33.7808H47.7952V42.9867H46.4767L46.4047 42.3154C46.1969 42.5672 45.9502 42.762 45.6646 42.8998C45.3789 43.0375 45.0443 43.1065 44.6607 43.1065C44.2691 43.1065 43.9163 43.0237 43.6028 42.8578C43.289 42.692 43.0223 42.4633 42.8025 42.1717C42.5826 41.88 42.413 41.5334 42.2931 41.1317C42.1732 40.7301 42.1133 40.2936 42.1133 39.8221V39.6963H42.1134ZM43.5698 39.8221C43.5698 40.1098 43.5967 40.3807 43.6507 40.6343C43.7047 40.888 43.7905 41.1108 43.9085 41.3026C44.0263 41.4943 44.1772 41.6452 44.361 41.7551C44.5448 41.865 44.7686 41.9199 45.0323 41.9199C45.3598 41.9199 45.6286 41.8471 45.8384 41.7011C46.0481 41.5553 46.215 41.3625 46.339 41.1228V38.3537C46.215 38.114 46.0472 37.9243 45.8354 37.7844C45.6235 37.6445 45.3599 37.5745 45.0443 37.5745C44.7806 37.5745 44.5557 37.6306 44.37 37.7424C44.1841 37.8543 44.0322 38.0062 43.9145 38.1979C43.7966 38.3897 43.7096 38.6145 43.6537 38.8721C43.5978 39.13 43.5699 39.4046 43.5699 39.6962V39.8221H43.5698Z" fill="white"/>
<path d="M52.171 43.1062C51.6915 43.1062 51.26 43.0263 50.8764 42.8665C50.4928 42.7067 50.167 42.4871 49.8994 42.2073C49.6317 41.9275 49.4259 41.5958 49.2821 41.2123C49.1383 40.8288 49.0664 40.4152 49.0664 39.9717V39.7318C49.0664 39.2203 49.1422 38.7579 49.2941 38.3442C49.4459 37.9306 49.6537 37.5792 49.9174 37.2895C50.1811 36.9997 50.4917 36.776 50.8493 36.6181C51.2069 36.4602 51.5916 36.3813 52.0032 36.3813C52.4746 36.3813 52.8842 36.4602 53.2318 36.6181C53.5794 36.776 53.867 36.9968 54.0948 37.2804C54.3227 37.5642 54.4925 37.9018 54.6043 38.2934C54.7162 38.685 54.7721 39.1145 54.7721 39.5819V40.2052H50.5347C50.5546 40.457 50.6075 40.6888 50.6935 40.9006C50.7794 41.1123 50.8963 41.2951 51.0442 41.449C51.1919 41.6028 51.3668 41.7237 51.5685 41.8115C51.7702 41.8995 51.9991 41.9434 52.2549 41.9434C52.6145 41.9434 52.927 41.8716 53.1928 41.7277C53.4584 41.5838 53.6893 41.3861 53.885 41.1342L54.6703 41.8834C54.5664 42.0393 54.4374 42.1901 54.2837 42.3359C54.1299 42.4819 53.9501 42.6117 53.7443 42.7256C53.5384 42.8395 53.3058 42.9313 53.046 43.0012C52.7863 43.0711 52.4947 43.1062 52.171 43.1062ZM51.9972 37.5503C51.5977 37.5503 51.275 37.6902 51.0294 37.9698C50.7836 38.2496 50.6268 38.6391 50.5589 39.1385H53.3339V39.0307C53.3218 38.8389 53.2909 38.6541 53.241 38.4762C53.191 38.2985 53.114 38.1407 53.0102 38.0027C52.9063 37.8648 52.7714 37.755 52.6055 37.6731C52.4397 37.5912 52.2369 37.5503 51.9972 37.5503Z" fill="white"/>
<path d="M59.5372 41.2247C59.5372 41.1208 59.5202 41.0238 59.4862 40.9339C59.4522 40.844 59.3853 40.7602 59.2855 40.6821C59.1855 40.6043 59.0447 40.5313 58.8629 40.4633C58.681 40.3954 58.4443 40.3315 58.1527 40.2716C57.8049 40.1998 57.4884 40.1099 57.2028 40.0019C56.9171 39.894 56.6723 39.7632 56.4686 39.6092C56.2648 39.4554 56.1059 39.2746 55.992 39.0668C55.8781 38.8591 55.8213 38.6194 55.8213 38.3477C55.8213 38.084 55.8792 37.8332 55.9952 37.5955C56.111 37.3577 56.2779 37.1489 56.4956 36.9692C56.7134 36.7895 56.9769 36.6466 57.2867 36.5407C57.5965 36.4347 57.9431 36.3818 58.3267 36.3818C58.7301 36.3818 59.0928 36.4348 59.4144 36.5407C59.736 36.6465 60.0088 36.7925 60.2326 36.9782C60.4563 37.1641 60.6271 37.3829 60.7451 37.6346C60.8629 37.8863 60.9219 38.1579 60.9219 38.4494H59.4655C59.4655 38.3257 59.4415 38.2048 59.3935 38.0869C59.3455 37.9691 59.2735 37.8643 59.1777 37.7723C59.082 37.6803 58.9629 37.6075 58.8212 37.5535C58.6794 37.4995 58.5145 37.4725 58.3268 37.4725C58.1428 37.4725 57.9831 37.4955 57.8472 37.5415C57.7112 37.5876 57.5985 37.6476 57.5086 37.7214C57.4187 37.7953 57.3516 37.8812 57.3077 37.9791C57.2637 38.0769 57.2418 38.1799 57.2418 38.2876C57.2418 38.3956 57.2616 38.4914 57.3017 38.5753C57.3418 38.6592 57.4127 38.7352 57.5145 38.8032C57.6163 38.8711 57.7532 38.934 57.9249 38.9919C58.0967 39.0499 58.3125 39.1068 58.5724 39.1628C58.9479 39.2427 59.2845 39.3366 59.5822 39.4444C59.8798 39.5525 60.1315 39.6843 60.3374 39.84C60.5431 39.9959 60.7 40.1797 60.8079 40.3915C60.9157 40.6032 60.9698 40.8548 60.9698 41.1464C60.9698 41.4342 60.9078 41.6979 60.7839 41.9376C60.66 42.1773 60.4832 42.3841 60.2534 42.5579C60.0236 42.7317 59.747 42.8667 59.4233 42.9626C59.0997 43.0583 58.74 43.1063 58.3445 43.1063C57.901 43.1063 57.5084 43.0433 57.1668 42.9176C56.8252 42.7918 56.5385 42.6268 56.3068 42.4231C56.075 42.2193 55.9001 41.9886 55.7823 41.7308C55.6644 41.4732 55.6055 41.2105 55.6055 40.9426H57.0199C57.032 41.1426 57.0779 41.3103 57.1579 41.4462C57.2377 41.5821 57.3396 41.6919 57.4635 41.7758C57.5873 41.8598 57.7272 41.9206 57.8831 41.9586C58.0388 41.9966 58.1987 42.0155 58.3625 42.0155C58.7461 42.0155 59.0377 41.9427 59.2374 41.7969C59.4372 41.6511 59.5372 41.4605 59.5372 41.2247Z" fill="white"/>
<path d="M9.5 15.4406L24.9406 30.8812L40.3812 15.4406L24.9406 0L9.5 15.4406ZM39.3815 15.4406L24.9406 29.8815L10.4998 15.4406L24.9407 0.999723L39.3815 15.4406Z" fill="white"/>
<path d="M27.1069 13.1719L37.8068 2.50633L50.7412 15.4406L37.8068 28.3749L32.6516 23.1852L32.2039 23.6329L37.8068 29.2703L51.6366 15.4406L37.8068 1.61084L26.6591 12.7241C26.5331 12.8502 26.5359 13.0554 26.6654 13.1779C26.79 13.2958 26.9857 13.2931 27.1069 13.1719Z" fill="white"/>
<path d="M24.9429 14.1309C24.2797 14.1309 23.7422 14.6685 23.7422 15.3316C23.7422 15.9946 24.2798 16.5322 24.9429 16.5322C25.6061 16.5322 26.1436 15.9946 26.1436 15.3316C26.1436 14.6685 25.6061 14.1309 24.9429 14.1309ZM24.9429 16.0521C24.545 16.0521 24.2224 15.7295 24.2224 15.3316C24.2224 14.9338 24.545 14.6112 24.9429 14.6112C25.3407 14.6112 25.6633 14.9338 25.6633 15.3316C25.6633 15.7295 25.3408 16.0521 24.9429 16.0521Z" fill="white"/>
</g>
<defs>
<clipPath id="clip0_4012_17700">
<rect width="61" height="43.1067" fill="white"/>
</clipPath>
</defs>
</svg>
