<svg width="20" height="20" viewBox="0 0 20 20" fill="none" xmlns="http://www.w3.org/2000/svg">
<g clip-path="url(#clip0_135_149)">
<path d="M3.125 17.1875V16.25H9.0625V15.625H1.5625C1.47962 15.625 1.40013 15.5921 1.34153 15.5335C1.28292 15.4749 1.25 15.3954 1.25 15.3125V3.75H15.625V9.0625H16.25V5.3125H17.5V8.4375H18.125V3.4375C18.125 3.18886 18.0262 2.9504 17.8504 2.77459C17.6746 2.59877 17.4361 2.5 17.1875 2.5H16.25V1.5625C16.25 1.31386 16.1512 1.0754 15.9754 0.899587C15.7996 0.723772 15.5611 0.625 15.3125 0.625H1.5625C1.31386 0.625 1.0754 0.723772 0.899587 0.899587C0.723772 1.0754 0.625 1.31386 0.625 1.5625V15.3125C0.625 15.5611 0.723772 15.7996 0.899587 15.9754C1.0754 16.1512 1.31386 16.25 1.5625 16.25H2.5V17.1875C2.5 17.4361 2.59877 17.6746 2.77459 17.8504C2.9504 18.0262 3.18886 18.125 3.4375 18.125H11.25V17.5H3.4375C3.35462 17.5 3.27513 17.4671 3.21653 17.4085C3.15792 17.3499 3.125 17.2704 3.125 17.1875ZM17.1875 3.125C17.2704 3.125 17.3499 3.15792 17.4085 3.21653C17.4671 3.27513 17.5 3.35462 17.5 3.4375V4.6875H16.25V3.125H17.1875ZM1.5625 1.25H15.3125C15.3954 1.25 15.4749 1.28292 15.5335 1.34153C15.5921 1.40013 15.625 1.47962 15.625 1.5625V3.125H1.25V1.5625C1.25 1.47962 1.28292 1.40013 1.34153 1.34153C1.40013 1.28292 1.47962 1.25 1.5625 1.25Z" fill="url(#paint0_linear_135_149)"/>
<path d="M3.125 17.1875V16.25H9.0625V15.625H1.5625C1.47962 15.625 1.40013 15.5921 1.34153 15.5335C1.28292 15.4749 1.25 15.3954 1.25 15.3125V3.75H15.625V9.0625H16.25V5.3125H17.5V8.4375H18.125V3.4375C18.125 3.18886 18.0262 2.9504 17.8504 2.77459C17.6746 2.59877 17.4361 2.5 17.1875 2.5H16.25V1.5625C16.25 1.31386 16.1512 1.0754 15.9754 0.899587C15.7996 0.723772 15.5611 0.625 15.3125 0.625H1.5625C1.31386 0.625 1.0754 0.723772 0.899587 0.899587C0.723772 1.0754 0.625 1.31386 0.625 1.5625V15.3125C0.625 15.5611 0.723772 15.7996 0.899587 15.9754C1.0754 16.1512 1.31386 16.25 1.5625 16.25H2.5V17.1875C2.5 17.4361 2.59877 17.6746 2.77459 17.8504C2.9504 18.0262 3.18886 18.125 3.4375 18.125H11.25V17.5H3.4375C3.35462 17.5 3.27513 17.4671 3.21653 17.4085C3.15792 17.3499 3.125 17.2704 3.125 17.1875ZM17.1875 3.125C17.2704 3.125 17.3499 3.15792 17.4085 3.21653C17.4671 3.27513 17.5 3.35462 17.5 3.4375V4.6875H16.25V3.125H17.1875ZM1.5625 1.25H15.3125C15.3954 1.25 15.4749 1.28292 15.5335 1.34153C15.5921 1.40013 15.625 1.47962 15.625 1.5625V3.125H1.25V1.5625C1.25 1.47962 1.28292 1.40013 1.34153 1.34153C1.40013 1.28292 1.47962 1.25 1.5625 1.25Z" fill="url(#paint1_linear_135_149)"/>
<path d="M17.5 17.1875C17.5 17.2704 17.4671 17.3499 17.4085 17.4085C17.3499 17.4671 17.2704 17.5 17.1875 17.5H15.3125V18.125H17.1875C17.4361 18.125 17.6746 18.0262 17.8504 17.8504C18.0262 17.6746 18.125 17.4361 18.125 17.1875V15.9375H17.5V17.1875Z" fill="url(#paint2_linear_135_149)"/>
<path d="M17.5 17.1875C17.5 17.2704 17.4671 17.3499 17.4085 17.4085C17.3499 17.4671 17.2704 17.5 17.1875 17.5H15.3125V18.125H17.1875C17.4361 18.125 17.6746 18.0262 17.8504 17.8504C18.0262 17.6746 18.125 17.4361 18.125 17.1875V15.9375H17.5V17.1875Z" fill="url(#paint3_linear_135_149)"/>
<path d="M2.5 1.875H3.125V2.5H2.5V1.875Z" fill="url(#paint4_linear_135_149)"/>
<path d="M2.5 1.875H3.125V2.5H2.5V1.875Z" fill="url(#paint5_linear_135_149)"/>
<path d="M3.75 1.875H4.375V2.5H3.75V1.875Z" fill="url(#paint6_linear_135_149)"/>
<path d="M3.75 1.875H4.375V2.5H3.75V1.875Z" fill="url(#paint7_linear_135_149)"/>
<path d="M5 1.875H5.625V2.5H5V1.875Z" fill="url(#paint8_linear_135_149)"/>
<path d="M5 1.875H5.625V2.5H5V1.875Z" fill="url(#paint9_linear_135_149)"/>
<path d="M6.5625 8.75C6.64538 8.75 6.72487 8.71708 6.78347 8.65847C6.84208 8.59987 6.875 8.52038 6.875 8.4375V5.3125C6.875 5.22962 6.84208 5.15013 6.78347 5.09153C6.72487 5.03292 6.64538 5 6.5625 5H2.8125C2.72962 5 2.65013 5.03292 2.59153 5.09153C2.53292 5.15013 2.5 5.22962 2.5 5.3125V8.4375C2.5 8.52038 2.53292 8.59987 2.59153 8.65847C2.65013 8.71708 2.72962 8.75 2.8125 8.75H6.5625ZM3.125 5.625H6.25V8.125H3.125V5.625Z" fill="url(#paint10_linear_135_149)"/>
<path d="M6.5625 8.75C6.64538 8.75 6.72487 8.71708 6.78347 8.65847C6.84208 8.59987 6.875 8.52038 6.875 8.4375V5.3125C6.875 5.22962 6.84208 5.15013 6.78347 5.09153C6.72487 5.03292 6.64538 5 6.5625 5H2.8125C2.72962 5 2.65013 5.03292 2.59153 5.09153C2.53292 5.15013 2.5 5.22962 2.5 5.3125V8.4375C2.5 8.52038 2.53292 8.59987 2.59153 8.65847C2.65013 8.71708 2.72962 8.75 2.8125 8.75H6.5625ZM3.125 5.625H6.25V8.125H3.125V5.625Z" fill="url(#paint11_linear_135_149)"/>
<path d="M8.125 5H8.75V5.625H8.125V5Z" fill="url(#paint12_linear_135_149)"/>
<path d="M8.125 5H8.75V5.625H8.125V5Z" fill="url(#paint13_linear_135_149)"/>
<path d="M9.375 5H10V5.625H9.375V5Z" fill="url(#paint14_linear_135_149)"/>
<path d="M9.375 5H10V5.625H9.375V5Z" fill="url(#paint15_linear_135_149)"/>
<path d="M10.625 5H13.125V5.625H10.625V5Z" fill="url(#paint16_linear_135_149)"/>
<path d="M10.625 5H13.125V5.625H10.625V5Z" fill="url(#paint17_linear_135_149)"/>
<path d="M8.125 6.25H13.125V6.875H8.125V6.25Z" fill="url(#paint18_linear_135_149)"/>
<path d="M8.125 6.25H13.125V6.875H8.125V6.25Z" fill="url(#paint19_linear_135_149)"/>
<path d="M8.125 7.5H13.125V8.125H8.125V7.5Z" fill="url(#paint20_linear_135_149)"/>
<path d="M8.125 7.5H13.125V8.125H8.125V7.5Z" fill="url(#paint21_linear_135_149)"/>
<path d="M8.125 8.75H13.125V9.375H8.125V8.75Z" fill="url(#paint22_linear_135_149)"/>
<path d="M8.125 8.75H13.125V9.375H8.125V8.75Z" fill="url(#paint23_linear_135_149)"/>
<path d="M2.5 10H8.125V10.625H2.5V10Z" fill="url(#paint24_linear_135_149)"/>
<path d="M2.5 10H8.125V10.625H2.5V10Z" fill="url(#paint25_linear_135_149)"/>
<path d="M2.5 11.25H8.125V11.875H2.5V11.25Z" fill="url(#paint26_linear_135_149)"/>
<path d="M2.5 11.25H8.125V11.875H2.5V11.25Z" fill="url(#paint27_linear_135_149)"/>
<path d="M2.5 12.5H8.125V13.125H2.5V12.5Z" fill="url(#paint28_linear_135_149)"/>
<path d="M2.5 12.5H8.125V13.125H2.5V12.5Z" fill="url(#paint29_linear_135_149)"/>
<path d="M2.5 13.75H8.125V14.375H2.5V13.75Z" fill="url(#paint30_linear_135_149)"/>
<path d="M2.5 13.75H8.125V14.375H2.5V13.75Z" fill="url(#paint31_linear_135_149)"/>
<path d="M13.689 15.7703L16.0531 15.4297C16.1974 15.5815 16.3885 15.6803 16.5958 15.7101C16.8031 15.74 17.0143 15.6992 17.1956 15.5944C17.4109 15.4699 17.568 15.265 17.6324 15.0248C17.6969 14.7846 17.6634 14.5287 17.5394 14.3131L16.7581 12.96C16.9736 12.8357 17.1309 12.6308 17.1953 12.3906C17.2598 12.1503 17.2262 11.8942 17.1019 11.6787C16.9775 11.4633 16.7727 11.306 16.5324 11.2415C16.2921 11.1771 16.0361 11.2107 15.8206 11.335L15.0394 9.98187C14.9235 9.78631 14.7405 9.6395 14.5244 9.56879C14.3084 9.49808 14.074 9.50827 13.8649 9.59747C13.6559 9.68667 13.4863 9.8488 13.3878 10.0537C13.2894 10.2586 13.2687 10.4923 13.3297 10.7112L11.3965 13.1675L9.82467 14.0737C9.60939 14.1983 9.4523 14.4031 9.38785 14.6433C9.32341 14.8835 9.35688 15.1394 9.48092 15.355L10.1059 16.4375C10.1674 16.5442 10.2494 16.6378 10.3471 16.7129C10.4448 16.7879 10.5563 16.843 10.6753 16.8749C10.7943 16.9069 10.9184 16.915 11.0406 16.8989C11.1627 16.8829 11.2805 16.8429 11.3872 16.7812L12.4809 18.6756C12.5424 18.7824 12.6244 18.8759 12.7221 18.951C12.8198 19.0261 12.9313 19.0811 13.0503 19.1131C13.1693 19.145 13.2934 19.1531 13.4156 19.1371C13.5377 19.121 13.6555 19.081 13.7622 19.0194L14.3034 18.7069C14.4102 18.6454 14.5037 18.5634 14.5788 18.4657C14.6539 18.368 14.7089 18.2565 14.7409 18.1375C14.7728 18.0185 14.7809 17.8944 14.7649 17.7722C14.7488 17.6501 14.7088 17.5323 14.6472 17.4256L13.689 15.7703ZM16.5594 11.9922C16.6008 12.0639 16.6121 12.1492 16.5907 12.2292C16.5693 12.3093 16.517 12.3776 16.4453 12.4191L16.1328 11.8778C16.2045 11.8365 16.2898 11.8253 16.3697 11.8467C16.4497 11.8682 16.5179 11.9205 16.5594 11.9922ZM14.0706 10.1819C14.1423 10.1404 14.2276 10.1291 14.3077 10.1505C14.3877 10.1719 14.456 10.2242 14.4975 10.2959L16.9975 14.6262C17.0195 14.6618 17.0341 14.7014 17.0405 14.7428C17.0469 14.7841 17.045 14.8263 17.0348 14.8669C17.0246 14.9075 17.0063 14.9456 16.9811 14.979C16.9559 15.0123 16.9243 15.0403 16.888 15.0612C16.8518 15.0822 16.8118 15.0956 16.7703 15.1008C16.7287 15.1059 16.6866 15.1027 16.6464 15.0913C16.6061 15.0799 16.5686 15.0605 16.536 15.0343C16.5034 15.0081 16.4764 14.9756 16.4565 14.9387L13.9565 10.6084C13.9152 10.5367 13.904 10.4515 13.9253 10.3716C13.9467 10.2916 13.999 10.2234 14.0706 10.1819ZM13.6459 11.3206L15.6844 14.8519L13.019 15.2356L11.9806 13.4375L13.6459 11.3206ZM11.4897 13.8369L12.4272 15.4619L11.8859 15.7744L10.9484 14.1494L11.4897 13.8369ZM10.6459 16.1275L10.0209 15.045C9.97948 14.9732 9.96825 14.8879 9.9897 14.8079C10.0111 14.7278 10.0635 14.6596 10.1353 14.6181L10.4059 14.4619L11.3434 16.0869L11.0728 16.2431C11.001 16.284 10.916 16.2947 10.8363 16.2731C10.7566 16.2514 10.6887 16.1991 10.6475 16.1275H10.6459ZM13.9897 18.1669L13.4484 18.4794C13.3766 18.5208 13.2913 18.532 13.2113 18.5106C13.1312 18.4891 13.063 18.4368 13.0215 18.365L11.9278 16.4706L12.959 15.8769L13.0215 15.8678L14.1031 17.7412C14.1443 17.8128 14.1555 17.8976 14.1343 17.9774C14.1131 18.0571 14.0612 18.1252 13.99 18.1669H13.9897Z" fill="url(#paint32_linear_135_149)"/>
<path d="M13.689 15.7703L16.0531 15.4297C16.1974 15.5815 16.3885 15.6803 16.5958 15.7101C16.8031 15.74 17.0143 15.6992 17.1956 15.5944C17.4109 15.4699 17.568 15.265 17.6324 15.0248C17.6969 14.7846 17.6634 14.5287 17.5394 14.3131L16.7581 12.96C16.9736 12.8357 17.1309 12.6308 17.1953 12.3906C17.2598 12.1503 17.2262 11.8942 17.1019 11.6787C16.9775 11.4633 16.7727 11.306 16.5324 11.2415C16.2921 11.1771 16.0361 11.2107 15.8206 11.335L15.0394 9.98187C14.9235 9.78631 14.7405 9.6395 14.5244 9.56879C14.3084 9.49808 14.074 9.50827 13.8649 9.59747C13.6559 9.68667 13.4863 9.8488 13.3878 10.0537C13.2894 10.2586 13.2687 10.4923 13.3297 10.7112L11.3965 13.1675L9.82467 14.0737C9.60939 14.1983 9.4523 14.4031 9.38785 14.6433C9.32341 14.8835 9.35688 15.1394 9.48092 15.355L10.1059 16.4375C10.1674 16.5442 10.2494 16.6378 10.3471 16.7129C10.4448 16.7879 10.5563 16.843 10.6753 16.8749C10.7943 16.9069 10.9184 16.915 11.0406 16.8989C11.1627 16.8829 11.2805 16.8429 11.3872 16.7812L12.4809 18.6756C12.5424 18.7824 12.6244 18.8759 12.7221 18.951C12.8198 19.0261 12.9313 19.0811 13.0503 19.1131C13.1693 19.145 13.2934 19.1531 13.4156 19.1371C13.5377 19.121 13.6555 19.081 13.7622 19.0194L14.3034 18.7069C14.4102 18.6454 14.5037 18.5634 14.5788 18.4657C14.6539 18.368 14.7089 18.2565 14.7409 18.1375C14.7728 18.0185 14.7809 17.8944 14.7649 17.7722C14.7488 17.6501 14.7088 17.5323 14.6472 17.4256L13.689 15.7703ZM16.5594 11.9922C16.6008 12.0639 16.6121 12.1492 16.5907 12.2292C16.5693 12.3093 16.517 12.3776 16.4453 12.4191L16.1328 11.8778C16.2045 11.8365 16.2898 11.8253 16.3697 11.8467C16.4497 11.8682 16.5179 11.9205 16.5594 11.9922ZM14.0706 10.1819C14.1423 10.1404 14.2276 10.1291 14.3077 10.1505C14.3877 10.1719 14.456 10.2242 14.4975 10.2959L16.9975 14.6262C17.0195 14.6618 17.0341 14.7014 17.0405 14.7428C17.0469 14.7841 17.045 14.8263 17.0348 14.8669C17.0246 14.9075 17.0063 14.9456 16.9811 14.979C16.9559 15.0123 16.9243 15.0403 16.888 15.0612C16.8518 15.0822 16.8118 15.0956 16.7703 15.1008C16.7287 15.1059 16.6866 15.1027 16.6464 15.0913C16.6061 15.0799 16.5686 15.0605 16.536 15.0343C16.5034 15.0081 16.4764 14.9756 16.4565 14.9387L13.9565 10.6084C13.9152 10.5367 13.904 10.4515 13.9253 10.3716C13.9467 10.2916 13.999 10.2234 14.0706 10.1819ZM13.6459 11.3206L15.6844 14.8519L13.019 15.2356L11.9806 13.4375L13.6459 11.3206ZM11.4897 13.8369L12.4272 15.4619L11.8859 15.7744L10.9484 14.1494L11.4897 13.8369ZM10.6459 16.1275L10.0209 15.045C9.97948 14.9732 9.96825 14.8879 9.9897 14.8079C10.0111 14.7278 10.0635 14.6596 10.1353 14.6181L10.4059 14.4619L11.3434 16.0869L11.0728 16.2431C11.001 16.284 10.916 16.2947 10.8363 16.2731C10.7566 16.2514 10.6887 16.1991 10.6475 16.1275H10.6459ZM13.9897 18.1669L13.4484 18.4794C13.3766 18.5208 13.2913 18.532 13.2113 18.5106C13.1312 18.4891 13.063 18.4368 13.0215 18.365L11.9278 16.4706L12.959 15.8769L13.0215 15.8678L14.1031 17.7412C14.1443 17.8128 14.1555 17.8976 14.1343 17.9774C14.1131 18.0571 14.0612 18.1252 13.99 18.1669H13.9897Z" fill="url(#paint33_linear_135_149)"/>
<path d="M17.4855 11.0969L18.568 10.4719L18.8805 11.0132L17.798 11.6382L17.4855 11.0969Z" fill="url(#paint34_linear_135_149)"/>
<path d="M17.4855 11.0969L18.568 10.4719L18.8805 11.0132L17.798 11.6382L17.4855 11.0969Z" fill="url(#paint35_linear_135_149)"/>
<path d="M16.4481 10.3608L16.7914 9.08008L17.3951 9.24193L17.0517 10.5226L16.4481 10.3608Z" fill="url(#paint36_linear_135_149)"/>
<path d="M16.4481 10.3608L16.7914 9.08008L17.3951 9.24193L17.0517 10.5226L16.4481 10.3608Z" fill="url(#paint37_linear_135_149)"/>
<path d="M17.92 12.9089L18.0819 12.3053L19.3626 12.6486L19.2007 13.2523L17.92 12.9089Z" fill="url(#paint38_linear_135_149)"/>
<path d="M17.92 12.9089L18.0819 12.3053L19.3626 12.6486L19.2007 13.2523L17.92 12.9089Z" fill="url(#paint39_linear_135_149)"/>
</g>
<defs>
<linearGradient id="paint0_linear_135_149" x1="9.375" y1="0.625" x2="9.375" y2="18.125" gradientUnits="userSpaceOnUse">
<stop/>
<stop offset="1" stop-color="#666666"/>
</linearGradient>
<linearGradient id="paint1_linear_135_149" x1="0.625" y1="1.40625" x2="19.7203" y2="3.47357" gradientUnits="userSpaceOnUse">
<stop stop-color="#0066B2"/>
<stop offset="1" stop-color="#00AEEF"/>
</linearGradient>
<linearGradient id="paint2_linear_135_149" x1="16.7188" y1="15.9375" x2="16.7188" y2="18.125" gradientUnits="userSpaceOnUse">
<stop/>
<stop offset="1" stop-color="#666666"/>
</linearGradient>
<linearGradient id="paint3_linear_135_149" x1="15.3125" y1="16.0352" x2="18.3583" y2="16.4591" gradientUnits="userSpaceOnUse">
<stop stop-color="#0066B2"/>
<stop offset="1" stop-color="#00AEEF"/>
</linearGradient>
<linearGradient id="paint4_linear_135_149" x1="2.8125" y1="1.875" x2="2.8125" y2="2.5" gradientUnits="userSpaceOnUse">
<stop/>
<stop offset="1" stop-color="#666666"/>
</linearGradient>
<linearGradient id="paint5_linear_135_149" x1="2.5" y1="1.9029" x2="3.18198" y2="1.97673" gradientUnits="userSpaceOnUse">
<stop stop-color="#0066B2"/>
<stop offset="1" stop-color="#00AEEF"/>
</linearGradient>
<linearGradient id="paint6_linear_135_149" x1="4.0625" y1="1.875" x2="4.0625" y2="2.5" gradientUnits="userSpaceOnUse">
<stop/>
<stop offset="1" stop-color="#666666"/>
</linearGradient>
<linearGradient id="paint7_linear_135_149" x1="3.75" y1="1.9029" x2="4.43198" y2="1.97673" gradientUnits="userSpaceOnUse">
<stop stop-color="#0066B2"/>
<stop offset="1" stop-color="#00AEEF"/>
</linearGradient>
<linearGradient id="paint8_linear_135_149" x1="5.3125" y1="1.875" x2="5.3125" y2="2.5" gradientUnits="userSpaceOnUse">
<stop/>
<stop offset="1" stop-color="#666666"/>
</linearGradient>
<linearGradient id="paint9_linear_135_149" x1="5" y1="1.9029" x2="5.68198" y2="1.97673" gradientUnits="userSpaceOnUse">
<stop stop-color="#0066B2"/>
<stop offset="1" stop-color="#00AEEF"/>
</linearGradient>
<linearGradient id="paint10_linear_135_149" x1="4.6875" y1="5" x2="4.6875" y2="8.75" gradientUnits="userSpaceOnUse">
<stop/>
<stop offset="1" stop-color="#666666"/>
</linearGradient>
<linearGradient id="paint11_linear_135_149" x1="2.5" y1="5.16741" x2="7.25394" y2="5.76787" gradientUnits="userSpaceOnUse">
<stop stop-color="#0066B2"/>
<stop offset="1" stop-color="#00AEEF"/>
</linearGradient>
<linearGradient id="paint12_linear_135_149" x1="8.4375" y1="5" x2="8.4375" y2="5.625" gradientUnits="userSpaceOnUse">
<stop/>
<stop offset="1" stop-color="#666666"/>
</linearGradient>
<linearGradient id="paint13_linear_135_149" x1="8.125" y1="5.0279" x2="8.80698" y2="5.10173" gradientUnits="userSpaceOnUse">
<stop stop-color="#0066B2"/>
<stop offset="1" stop-color="#00AEEF"/>
</linearGradient>
<linearGradient id="paint14_linear_135_149" x1="9.6875" y1="5" x2="9.6875" y2="5.625" gradientUnits="userSpaceOnUse">
<stop/>
<stop offset="1" stop-color="#666666"/>
</linearGradient>
<linearGradient id="paint15_linear_135_149" x1="9.375" y1="5.0279" x2="10.057" y2="5.10173" gradientUnits="userSpaceOnUse">
<stop stop-color="#0066B2"/>
<stop offset="1" stop-color="#00AEEF"/>
</linearGradient>
<linearGradient id="paint16_linear_135_149" x1="11.875" y1="5" x2="11.875" y2="5.625" gradientUnits="userSpaceOnUse">
<stop/>
<stop offset="1" stop-color="#666666"/>
</linearGradient>
<linearGradient id="paint17_linear_135_149" x1="10.625" y1="5.0279" x2="12.949" y2="6.03433" gradientUnits="userSpaceOnUse">
<stop stop-color="#0066B2"/>
<stop offset="1" stop-color="#00AEEF"/>
</linearGradient>
<linearGradient id="paint18_linear_135_149" x1="10.625" y1="6.25" x2="10.625" y2="6.875" gradientUnits="userSpaceOnUse">
<stop/>
<stop offset="1" stop-color="#666666"/>
</linearGradient>
<linearGradient id="paint19_linear_135_149" x1="8.125" y1="6.2779" x2="11.2789" y2="9.0095" gradientUnits="userSpaceOnUse">
<stop stop-color="#0066B2"/>
<stop offset="1" stop-color="#00AEEF"/>
</linearGradient>
<linearGradient id="paint20_linear_135_149" x1="10.625" y1="7.5" x2="10.625" y2="8.125" gradientUnits="userSpaceOnUse">
<stop/>
<stop offset="1" stop-color="#666666"/>
</linearGradient>
<linearGradient id="paint21_linear_135_149" x1="8.125" y1="7.5279" x2="11.2789" y2="10.2595" gradientUnits="userSpaceOnUse">
<stop stop-color="#0066B2"/>
<stop offset="1" stop-color="#00AEEF"/>
</linearGradient>
<linearGradient id="paint22_linear_135_149" x1="10.625" y1="8.75" x2="10.625" y2="9.375" gradientUnits="userSpaceOnUse">
<stop/>
<stop offset="1" stop-color="#666666"/>
</linearGradient>
<linearGradient id="paint23_linear_135_149" x1="8.125" y1="8.7779" x2="11.2789" y2="11.5095" gradientUnits="userSpaceOnUse">
<stop stop-color="#0066B2"/>
<stop offset="1" stop-color="#00AEEF"/>
</linearGradient>
<linearGradient id="paint24_linear_135_149" x1="5.3125" y1="10" x2="5.3125" y2="10.625" gradientUnits="userSpaceOnUse">
<stop/>
<stop offset="1" stop-color="#666666"/>
</linearGradient>
<linearGradient id="paint25_linear_135_149" x1="2.5" y1="10.0279" x2="5.68546" y2="13.1317" gradientUnits="userSpaceOnUse">
<stop stop-color="#0066B2"/>
<stop offset="1" stop-color="#00AEEF"/>
</linearGradient>
<linearGradient id="paint26_linear_135_149" x1="5.3125" y1="11.25" x2="5.3125" y2="11.875" gradientUnits="userSpaceOnUse">
<stop/>
<stop offset="1" stop-color="#666666"/>
</linearGradient>
<linearGradient id="paint27_linear_135_149" x1="2.5" y1="11.2779" x2="5.68546" y2="14.3817" gradientUnits="userSpaceOnUse">
<stop stop-color="#0066B2"/>
<stop offset="1" stop-color="#00AEEF"/>
</linearGradient>
<linearGradient id="paint28_linear_135_149" x1="5.3125" y1="12.5" x2="5.3125" y2="13.125" gradientUnits="userSpaceOnUse">
<stop/>
<stop offset="1" stop-color="#666666"/>
</linearGradient>
<linearGradient id="paint29_linear_135_149" x1="2.5" y1="12.5279" x2="5.68546" y2="15.6317" gradientUnits="userSpaceOnUse">
<stop stop-color="#0066B2"/>
<stop offset="1" stop-color="#00AEEF"/>
</linearGradient>
<linearGradient id="paint30_linear_135_149" x1="5.3125" y1="13.75" x2="5.3125" y2="14.375" gradientUnits="userSpaceOnUse">
<stop/>
<stop offset="1" stop-color="#666666"/>
</linearGradient>
<linearGradient id="paint31_linear_135_149" x1="2.5" y1="13.7779" x2="5.68546" y2="16.8817" gradientUnits="userSpaceOnUse">
<stop stop-color="#0066B2"/>
<stop offset="1" stop-color="#00AEEF"/>
</linearGradient>
<linearGradient id="paint32_linear_135_149" x1="13.5101" y1="9.52228" x2="13.5101" y2="19.1451" gradientUnits="userSpaceOnUse">
<stop/>
<stop offset="1" stop-color="#666666"/>
</linearGradient>
<linearGradient id="paint33_linear_135_149" x1="9.35577" y1="9.95187" x2="18.4487" y2="10.8019" gradientUnits="userSpaceOnUse">
<stop stop-color="#0066B2"/>
<stop offset="1" stop-color="#00AEEF"/>
</linearGradient>
<linearGradient id="paint34_linear_135_149" x1="18.0267" y1="10.7844" x2="18.3392" y2="11.3257" gradientUnits="userSpaceOnUse">
<stop/>
<stop offset="1" stop-color="#666666"/>
</linearGradient>
<linearGradient id="paint35_linear_135_149" x1="17.4994" y1="11.1211" x2="18.7836" y2="10.7092" gradientUnits="userSpaceOnUse">
<stop stop-color="#0066B2"/>
<stop offset="1" stop-color="#00AEEF"/>
</linearGradient>
<linearGradient id="paint36_linear_135_149" x1="16.6197" y1="9.72043" x2="17.2234" y2="9.88228" gradientUnits="userSpaceOnUse">
<stop/>
<stop offset="1" stop-color="#666666"/>
</linearGradient>
<linearGradient id="paint37_linear_135_149" x1="16.475" y1="10.368" x2="17.1435" y2="9.10772" gradientUnits="userSpaceOnUse">
<stop stop-color="#0066B2"/>
<stop offset="1" stop-color="#00AEEF"/>
</linearGradient>
<linearGradient id="paint38_linear_135_149" x1="18.001" y1="12.6071" x2="19.2817" y2="12.9505" gradientUnits="userSpaceOnUse">
<stop/>
<stop offset="1" stop-color="#666666"/>
</linearGradient>
<linearGradient id="paint39_linear_135_149" x1="17.9772" y1="12.9243" x2="18.1894" y2="12.2687" gradientUnits="userSpaceOnUse">
<stop stop-color="#0066B2"/>
<stop offset="1" stop-color="#00AEEF"/>
</linearGradient>
<clipPath id="clip0_135_149">
<rect width="20" height="20" fill="white"/>
</clipPath>
</defs>
</svg>
